# xmcd CD database file
#
# Track frame offsets:
#	150
#	23560
#	40895
#	62464
#	79096
#	101995
#	122762
#	139193
#	161374
#	178807
#	202843
#	226370
#	248475
#
# Disc length: 3612 seconds
#
# Revision: 0
# Processed by: cddbd v1.5.2PL0 Copyright (c) Steve Scherf et al.
# Submitted via: CDex 1.70beta2
#
DISCID=a10e1a0d
DTITLE=Various Artist - 島耕作が愛したJAZZ -FREE STYLE-
DYEAR=2008
DGENRE=Jazz
TTITLE0=Everything Must Change (Aicube Vocal Mix) - Ayur feat. Fonogenico
TTITLE1=In a Mellow Tone (Drop Out Remix) - KGO
TTITLE2=Left Alone - Nanofingers feat. Naoe Nami
TTITLE3=危険な関係のブルース - Second Throne
TTITLE4=Come Together (Aicube Vocal Mix) - NESS feat. Fonogenico
TTITLE5=愚かなりわが心 (Lazy's Heartful Mix) - Lazybird feat. Rie Uemura
TTITLE6=私の悲しみ - Second Throne
TTITLE7=Invitation - SWEET BEATS LUB
TTITLE8=In a Sentimental Mood - Symbalance
TTITLE9=It Never Entered My Mind (Guiter Suite Mix) - Fair Bianca
TTITLE10=Solitude (Work Away Remix) - KGO
TTITLE11=Deep Purple (Ayur Re-Edit) - NESS feat. Rie Uemura
TTITLE12=Everything Must Change (Aicube Piano Dub Edit) - Ayur feat. Fonogenico
EXTD=YEAR: 2008
EXTT0=
EXTT1=
EXTT2=
EXTT3=
EXTT4=
EXTT5=
EXTT6=
EXTT7=
EXTT8=
EXTT9=
EXTT10=
EXTT11=
EXTT12=
PLAYORDER=
